<?xml version="1.0" encoding="UTF-8" standalone="no"?>
<!DOCTYPE svg PUBLIC "-//W3C//DTD SVG 1.1//EN" "http://www.w3.org/Graphics/SVG/1.1/DTD/svg11.dtd">
<svg width="100%" height="100%" viewBox="0 0 1000 1000" version="1.1" xmlns="http://www.w3.org/2000/svg" xmlns:xlink="http://www.w3.org/1999/xlink" xml:space="preserve" xmlns:serif="http://www.serif.com/" style="fill-rule:evenodd;clip-rule:evenodd;stroke-linejoin:round;stroke-miterlimit:2;">
    <rect x="0" y="0" width="1000" height="1000" style="fill:url(#_Linear1);"/>
    <g transform="matrix(4.8403,0,0,4.8403,151.496,150.724)">
        <path d="M28.002,18.029C27.012,18.138 26.062,18.574 25.318,19.318L19.318,25.318C17.827,26.812 17.569,29.135 18.703,30.914L30.27,49.061C31.974,51.794 34.782,53.567 37.98,53.93C38.382,53.975 38.789,54 39.188,54C41.476,54 43.657,53.222 45.475,51.838L67.506,73.869C64.223,79.716 65.026,87.269 69.967,92.262L99.639,121.77C102.54,124.692 106.406,126.307 110.525,126.322L110.584,126.322C114.682,126.322 118.537,124.732 121.447,121.846C124.366,118.945 125.985,115.078 126,110.959C126.015,106.84 124.43,102.962 121.535,100.049L91.893,70.576C88.992,67.645 85.125,66.018 81,66L80.93,66C78.492,66 76.169,66.623 74.051,67.688L51.826,45.463C53.448,43.325 54.238,40.682 53.93,37.969C53.564,34.774 51.79,31.967 49.096,30.281L30.914,18.703C30.022,18.138 28.992,17.92 28.002,18.029ZM96.357,18.053C93.551,17.886 90.642,18.092 87.674,18.727C75.227,21.388 65.447,31.695 63.422,44.262C63.209,45.585 63.08,46.889 63.029,48.182L75.563,60.715C77.324,60.241 79.115,60 80.93,60C86.753,60.027 92.129,62.284 96.158,66.352L107.865,77.988C117.198,73.563 124.154,64.654 125.672,54.088C126.401,49.012 125.894,44.143 124.43,39.709C123.398,36.589 119.343,35.758 117.018,38.08L103.635,51.457C100.53,54.562 95.186,54.83 92.156,51.65C90.773,50.198 90.012,48.296 90.012,46.283C90.012,44.204 90.821,42.254 92.291,40.781L106.043,27.029C108.362,24.71 107.534,20.661 104.426,19.617C101.867,18.758 99.164,18.219 96.357,18.053ZM53.648,68.496L22.447,99.855C19.564,102.759 17.985,106.621 18,110.719C18.015,114.817 19.625,118.664 22.529,121.547C25.421,124.421 29.254,126 33.334,126L33.393,126C37.491,125.985 41.335,124.375 44.221,121.465L67.406,98.174L65.736,96.516C60.177,90.903 58.285,82.699 60.475,75.322L53.648,68.496Z" style="fill:white;fill-rule:nonzero;"/>
    </g>
    <defs>
        <linearGradient id="_Linear1" x1="0" y1="0" x2="1" y2="0" gradientUnits="userSpaceOnUse" gradientTransform="matrix(1000,1000,-1000,1000,0,4.83169e-13)"><stop offset="0" style="stop-color:rgb(32,36,97);stop-opacity:1"/><stop offset="1" style="stop-color:rgb(45,49,104);stop-opacity:1"/></linearGradient>
    </defs>
</svg>
